<svg height="512" viewBox="0 0 50 58" width="512" xmlns="http://www.w3.org/2000/svg"><g id="Page-1" fill="none" fill-rule="evenodd"><g id="004---Genius" fill-rule="nonzero"><g fill="#e57e25"><path id="Shape" d="m27.2 10.146c-.4563482.0008581-.8553893-.30733902-.9698911-.74908982s.0845849-.90498262.4838911-1.12591018c7.644-4.24 16.982-7.4 20.261-3.54.3589851.42084098.308841 1.0530149-.112 1.41199998-.420841.35898509-1.0530149.30884099-1.412-.11199998-1.684-1.979-8.327-1.244-17.767 3.994-.1486613.0802116-.3150816.1218166-.484.121z"/><path id="Shape" d="m3.25 36.77c-.41005145.000234-.77869106-.249886-.93-.631-1.369-3.445 1.732-9.371 8.3-15.855.3987399-.3467911.9984758-.3234751 1.3690884.0532261.3706126.3767013.3841536.9767375.0309116 1.3697739-6.589 6.51-8.686 11.568-7.842 13.693.12260943.3078591.08474822.6564633-.10109475.930822-.18584296.2743586-.49552906.4388362-.82690525.439178z"/><path id="Shape" d="m23.059 10.292c-.1708446.0000478-.3388527-.0436756-.488-.127-9.718-5.448-16.089-6.033-17.9-4.276-.39543588.38659932-1.02940068.37943588-1.416-.016s-.37943588-1.02940068.016-1.416c3.555-3.46 12.8-.222 20.269 3.962.3977909.22223167.5950507.68527447.479726 1.12609729s-.5140688.74794361-.969726.74690271z"/><path id="Shape" d="m46.789 36.67c-.3254838-.0000476-.6305803-.158499-.8178201-.4247338-.1872398-.2662347-.2331934-.6069384-.1231799-.9132662.943-2.623-2.145-7.971-7.868-13.625-.3822615-.3898335-.3811869-1.0142148.0024141-1.4027303.383601-.3885154 1.007918-.3975379 1.4025859-.0202697 6.469 6.391 9.588 12.269 8.344 15.724-.1424821.3967359-.5184549.6615168-.94.662z"/></g><path id="Shape" d="m17 50h-3c-.5522847 0-1-.4477153-1-1s.4477153-1 1-1h3c.5522847 0 1 .4477153 1 1s-.4477153 1-1 1z" fill="#7f8284"/><path id="Shape" d="m36 50h-3c-.5522847 0-1-.4477153-1-1s.4477153-1 1-1h3c.5522847 0 1 .4477153 1 1s-.4477153 1-1 1z" fill="#7f8284"/><path id="Shape" d="m42.92 23.74c-.3960625 4.100885-2.1937122 7.9398736-5.09 10.87-3.0442715 3.014394-4.7793947 7.1061233-4.83 11.39h-16c-.0070373-2.1196493-.4459684-4.2156303-1.29-6.16-.8461319-1.9474069-2.0464728-3.7207919-3.54-5.23-4.60666393-4.6732322-6.30138164-11.4850625-4.42152199-17.7720793 1.87985965-6.2870167 7.03567079-11.05049349 13.45152199-12.4279207.4620076-.09428328.7953763-.49849291.8-.97v-.44c0-1.65685425 1.3431458-3 3-3s3 1.34314575 3 3v.44c.0046237.47150709.3379924.87571672.8.97 8.9299329 1.92665836 15.0004823 10.2371201 14.12 19.33z" fill="#f0c419"/><path id="Shape" d="m39.722 23.74c-.270708 3.9611001-1.7279768 7.7488837-4.182 10.87-2.57884 3.2352892-3.9784021 7.2526816-3.968 11.39h-13.144c-.0020095-2.0985393-.3604399-4.1814938-1.06-6.16-.666399-1.8953284-1.6496999-3.6637822-2.908-5.23-2.4540232-3.1211163-3.911292-6.9088999-4.182-10.87-.723-9.39 4.486-17.48 11.6-19.33.4107148-.14076381.6786693-.53637396.657-.97v-.44c-.1350975-1.50524818.9621294-2.84061563 2.465-3 .6837449.01529157 1.3239707.33871218 1.742.88.4770343.60281807.7323027 1.35132266.723 2.12v.44c-.0216693.43362604.2462852.82923619.657.97 7.114 1.85 12.323 9.94 11.6 19.33z" fill="#f3d55b"/><path id="Shape" d="m33 46v6c-.0032948 1.1032019-.8967981 1.9967052-2 2h-12c-1.1032019-.0032948-1.9967052-.8967981-2-2v-6z" fill="#95a5a5"/><path id="Shape" d="m30 54.5c0 1.93-2.24 3.5-5 3.5s-5-1.57-5-3.5c-.0003835-.1684851.019765-.3363891.06-.5h9.88c.040235.1636109.0603835.3315149.06.5z" fill="#393f4a"/><path id="Shape" d="m7.747 39c-1.4658384.0808756-2.91705686-.3271257-4.126-1.16-.3009483-.2127423-.46048584-.5737738-.41517122-.9395275.04531462-.3657536.28813525-.6769355.63190228-.8098015s.73275088-.0658768 1.01226894.174329c1.434 1.117 4.655.965 8.837-.415 3.7803638-1.2985723 7.4014516-3.0212225 10.794-5.135 1.316-.8 2.6-1.639 3.83-2.487 4.919938-3.3279717 9.3683933-7.3045039 13.225-11.822 3.262-3.975 4.887-7.523 4.348-9.492-.1416148-.53114886.1720399-1.07701651.7022405-1.22214139.5302005-.14512488 1.0781308.16491235 1.2267595.69414139.937 3.423-2.055 8.028-4.73 11.288-3.9750571 4.6615732-8.5611234 8.7652852-13.634 12.2-1.257.87-2.578 1.728-3.928 2.551-3.5244361 2.1935419-7.286104 3.9806109-11.213 5.327-2.110912.7468498-4.32330417 1.1676797-6.561 1.248z" fill="#f29c1f"/><path id="Shape" d="m42.25 39.008c-2.2396938-.0762122-4.4538715-.5006272-6.563-1.258-3.9243396-1.3463694-7.6836172-3.1327475-11.206-5.325-1.352-.824-2.673-1.682-3.93-2.553-5.0732142-3.4346624-9.6596179-7.5383752-13.635-12.2-2.707-3.3-5.72-7.951-4.7-11.379.1604185-.52551096.71477533-.82316111 1.24143753-.66656359.5266622.15659753.82833076.70877792.67556247 1.23656359-.581 1.959 1.038 5.526 4.333 9.541 3.8559423 4.5176947 8.3037187 8.4945577 13.223 11.823 1.226.849 2.514 1.687 3.832 2.489 3.3902892 2.1126017 7.0090386 3.8342501 10.787 5.132 4.379 1.445 7.759 1.533 9.046.236.3893607-.391846 1.022654-.3938607 1.4145-.0045s.3938607 1.022654.0045 1.4145c-1.2425554 1.0926627-2.8730393 1.6384404-4.523 1.514z" fill="#f29c1f"/><circle id="Oval" cx="3.5" cy="36.5" fill="#3b97d3" r="3.5"/><circle id="Oval" cx="3.5" cy="5.5" fill="#3b97d3" r="3.5"/><circle id="Oval" cx="46.5" cy="36.5" fill="#3b97d3" r="3.5"/><circle id="Oval" cx="46.5" cy="5.5" fill="#3b97d3" r="3.5"/><path id="Shape" d="m12.485 16.743c-.3467281-.0000116-.6687061-.1796295-.8508572-.4746573-.1821511-.2950277-.198477-.6633561-.0431428-.9733427 1.8777695-3.7606504 5.2478598-6.56041216 9.289-7.717.3475904-.11061506.7278364-.02319312.9922165.22811941.26438.25131252.3709481.62664287.2780794.97938951-.0928687.35274665-.3704398.62694349-.7242959.71549108-3.5009277 1.0034917-6.4199833 3.4302333-8.046 6.689-.1694246.3390516-.515974.5531766-.895.553z" fill="#fff"/></g></g></svg>